<svg width="14" height="14" viewBox="0 0 14 14" fill="none" xmlns="http://www.w3.org/2000/svg">
<circle cx="7" cy="7" r="5" fill="#D9D9D9"/>
<path fill-rule="evenodd" clip-rule="evenodd" d="M14 7C14 8.85652 13.2625 10.637 11.9497 11.9497C10.637 13.2625 8.85652 14 7 14C5.14348 14 3.36301 13.2625 2.05025 11.9497C0.737498 10.637 0 8.85652 0 7C0 5.14348 0.737498 3.36301 2.05025 2.05025C3.36301 0.737498 5.14348 0 7 0C8.85652 0 10.637 0.737498 11.9497 2.05025C13.2625 3.36301 14 5.14348 14 7ZM3.743 4.375C4.084 4.375 4.394 4.575 4.534 4.887L5 5.92L5.466 4.886C5.54767 4.70526 5.68877 4.55794 5.86582 4.46855C6.04287 4.37917 6.2452 4.35312 6.43912 4.39473C6.63304 4.43634 6.80686 4.54311 6.93165 4.69727C7.05644 4.85142 7.12468 5.04367 7.125 5.242V9C7.125 9.16576 7.05915 9.32473 6.94194 9.44194C6.82473 9.55915 6.66576 9.625 6.5 9.625C6.33424 9.625 6.17527 9.55915 6.05806 9.44194C5.94085 9.32473 5.875 9.16576 5.875 9V7.023L5.852 7.074C5.77823 7.23824 5.65856 7.37765 5.50741 7.47546C5.35625 7.57327 5.18004 7.62531 5 7.62531C4.81996 7.62531 4.64375 7.57327 4.49259 7.47546C4.34144 7.37765 4.22177 7.23824 4.148 7.074L4.125 7.024V9C4.125 9.16576 4.05915 9.32473 3.94194 9.44194C3.82473 9.55915 3.66576 9.625 3.5 9.625C3.33424 9.625 3.17527 9.55915 3.05806 9.44194C2.94085 9.32473 2.875 9.16576 2.875 9V5.243C2.875 4.763 3.264 4.375 3.743 4.375ZM10.125 5C10.125 4.91792 10.1088 4.83665 10.0774 4.76082C10.046 4.68499 9.99998 4.61609 9.94194 4.55806C9.88391 4.50002 9.81501 4.45398 9.73918 4.42258C9.66335 4.39117 9.58208 4.375 9.5 4.375C9.41792 4.375 9.33665 4.39117 9.26082 4.42258C9.18499 4.45398 9.11609 4.50002 9.05806 4.55806C9.00002 4.61609 8.95398 4.68499 8.92257 4.76082C8.89117 4.83665 8.875 4.91792 8.875 5V7.5H8.5C8.40098 7.49982 8.30414 7.52905 8.22175 7.58398C8.13936 7.63891 8.07513 7.71706 8.03722 7.80854C7.9993 7.90001 7.98939 8.00068 8.00876 8.09779C8.02813 8.1949 8.07589 8.28407 8.146 8.354L9.146 9.354C9.19245 9.40056 9.24762 9.43751 9.30837 9.46271C9.36911 9.48792 9.43423 9.50089 9.5 9.50089C9.56577 9.50089 9.63089 9.48792 9.69163 9.46271C9.75238 9.43751 9.80755 9.40056 9.854 9.354L10.854 8.354C10.9241 8.28407 10.9719 8.1949 10.9912 8.09779C11.0106 8.00068 11.0007 7.90001 10.9628 7.80854C10.9249 7.71706 10.8606 7.63891 10.7783 7.58398C10.6959 7.52905 10.599 7.49982 10.5 7.5H10.125V5Z" fill="#0E44E2"/>
</svg>
